<svg width="25" height="25" viewBox="0 0 25 25" fill="none" xmlns="http://www.w3.org/2000/svg">
<path d="M21.7202 10.1399H14.9702V3.38989C14.9702 2.56161 14.2985 1.88989 13.4702 1.88989H11.9702C11.1419 1.88989 10.4702 2.56161 10.4702 3.38989V10.1399H3.72021C2.89193 10.1399 2.22021 10.8116 2.22021 11.6399V13.1399C2.22021 13.9682 2.89193 14.6399 3.72021 14.6399H10.4702V21.3899C10.4702 22.2182 11.1419 22.8899 11.9702 22.8899H13.4702C14.2985 22.8899 14.9702 22.2182 14.9702 21.3899V14.6399H21.7202C22.5485 14.6399 23.2202 13.9682 23.2202 13.1399V11.6399C23.2202 10.8116 22.5485 10.1399 21.7202 10.1399Z" fill="#FF4600"/>
</svg>
